<?xml version="1.0" encoding="UTF-8"?>
<svg width="274px" height="181px" viewBox="0 0 274 181" version="1.1" xmlns="http://www.w3.org/2000/svg" xmlns:xlink="http://www.w3.org/1999/xlink">
    <!-- Generator: Sketch 56.2 (81672) - https://sketch.com -->
    <title>Logo</title>
    <desc>Created with Sketch.</desc>
    <defs>
        <filter x="-13.7%" y="-22.2%" width="127.5%" height="144.4%" filterUnits="objectBoundingBox" id="filter-1">
            <feOffset dx="0" dy="2" in="SourceAlpha" result="shadowOffsetOuter1"></feOffset>
            <feGaussianBlur stdDeviation="7.5" in="shadowOffsetOuter1" result="shadowBlurOuter1"></feGaussianBlur>
            <feColorMatrix values="0 0 0 0 0   0 0 0 0 0   0 0 0 0 0  0 0 0 0.2 0" type="matrix" in="shadowBlurOuter1" result="shadowMatrixOuter1"></feColorMatrix>
            <feMerge>
                <feMergeNode in="shadowMatrixOuter1"></feMergeNode>
                <feMergeNode in="SourceGraphic"></feMergeNode>
            </feMerge>
        </filter>
    </defs>
    <g id="Page-1" stroke="none" stroke-width="1" fill="none" fill-rule="evenodd">
        <g id="Main-Layout" transform="translate(15.000000, 13.000000)">
            <g id="Logo">
                <g id="Cloud" filter="url(#filter-1)" fill="#FFFFFF">
                    <circle id="Oval" cx="93.5" cy="33.5" r="33.5"></circle>
                    <circle id="Oval" cx="47" cy="81" r="47"></circle>
                    <circle id="Oval" cx="108" cy="96" r="55"></circle>
                    <circle id="Oval" cx="159" cy="51" r="45"></circle>
                    <circle id="Oval" cx="210.5" cy="74.5" r="33.5"></circle>
                    <circle id="Oval" cx="161.5" cy="88.5" r="47.5"></circle>
                </g>
                <g id="floatingview" transform="translate(39.000000, 27.000000)" fill="#527FD9" fill-rule="nonzero">
                    <path d="M9.57543916,55.939129 C10.3254429,52.7291129 11.0904353,49.5116451 11.8704392,46.286629 C12.6504431,43.0616128 13.4079355,39.9191443 14.1429392,36.859129 C14.8779428,33.7991137 15.5829358,30.866643 16.2579392,28.061629 C16.9329425,25.2566149 17.5554363,22.654141 18.1254392,20.254129 C18.3054401,19.5941257 18.4779383,18.9491321 18.6429392,18.319129 C18.80794,17.6891258 19.010438,17.1041317 19.2504392,16.564129 C19.4904404,16.0241263 19.730438,15.454132 19.9704392,14.854129 C20.2104404,14.254126 20.4804377,13.6991315 20.7804392,13.189129 C21.0804407,12.6791264 21.4329371,12.2441288 21.8379392,11.884129 C22.2429412,11.5241272 22.7454362,11.3141293 23.3454392,11.254129 C23.6754408,11.2241288 24.0354372,11.2616284 24.4254392,11.366629 C24.8154411,11.4716295 25.2054372,11.6966272 25.5954392,12.041629 C25.9854411,12.3866307 26.3529374,12.8666259 26.6979392,13.481629 C27.0429409,14.096632 27.3204381,14.899124 27.5304392,15.889129 C28.0104416,18.1391402 28.16794,20.3666179 28.0029392,22.571629 C27.8379383,24.77664 27.4554422,26.9216185 26.8554392,29.006629 C26.2554362,31.0916394 25.4904438,33.1016193 24.5604392,35.036629 C23.6304345,36.9716386 22.6554443,38.8016203 21.6354392,40.526629 C20.6154341,42.2516376 19.6029442,43.8641215 18.5979392,45.364129 C17.5929341,46.8641365 16.7154429,48.1991231 15.9654392,49.369129 L15.0204392,52.879129 C16.2504453,52.0991251 17.4654332,51.2366337 18.6654392,50.291629 C19.8654452,49.3466242 21.0204336,48.266635 22.1304392,47.051629 C23.2404447,45.8366229 24.2754344,44.4866364 25.2354392,43.001629 C26.195444,41.5166215 27.0654353,39.8441383 27.8454392,37.984129 C28.0854404,37.6241272 28.3404378,37.4516289 28.6104392,37.466629 C28.8804405,37.481629 29.1129382,37.6091278 29.3079392,37.849129 C29.5029401,38.0891302 29.6454387,38.4191269 29.7354392,38.839129 C29.8254396,39.2591311 29.7954399,39.664127 29.6454392,40.054129 C28.2354321,43.3841456 26.5104494,46.2716167 24.4704392,48.716629 C22.430429,51.1616412 20.1654516,53.3441194 17.6754392,55.264129 C18.0054408,55.6841311 18.3129377,56.1791261 18.5979392,56.749129 C18.8829406,57.3191318 19.1154383,57.9941251 19.2954392,58.774129 C19.5954407,60.184136 19.6329403,61.684121 19.4079392,63.274129 C19.182938,64.8641369 18.7704422,66.4391212 18.1704392,67.999129 C17.5704362,69.5591368 16.8354435,71.0441219 15.9654392,72.454129 C15.0954348,73.864136 14.1879439,75.1166235 13.2429392,76.211629 C12.2979344,77.3066344 11.3679437,78.1766257 10.4529392,78.821629 C9.53793459,79.4666322 8.72044276,79.789129 8.00043916,79.789129 C7.13043481,79.789129 6.37294239,79.481632 5.72793916,78.866629 C5.08293594,78.2516259 4.82043856,77.4791336 4.94043916,76.549129 L5.34543916,73.714129 C5.82544156,71.7341191 6.31293669,69.6791396 6.80793916,67.549129 C7.30294164,65.4191183 7.82043646,63.2441401 8.36043916,61.024129 C7.67043571,61.2041299 7.19794044,61.1066308 6.94293916,60.731629 C6.68793789,60.3566271 6.58293894,59.8991317 6.62793916,59.359129 C6.67293939,58.8191263 6.83793774,58.2716317 7.12293916,57.716629 C7.40794059,57.1616262 7.76043706,56.7941299 8.18043916,56.614129 L9.57543916,55.939129 Z M13.5804392,58.099129 L10.1154392,70.879129 C9.75543736,72.4391368 9.60543886,73.4441267 9.66543916,73.894129 C9.72543946,74.3441312 9.91293759,74.4716299 10.2279392,74.276629 C10.5429407,74.081628 10.9254369,73.676632 11.3754392,73.061629 C11.8254414,72.4466259 12.2604371,71.839132 12.6804392,71.239129 C13.2204419,70.5191254 13.7829362,69.6191344 14.3679392,68.539129 C14.9529421,67.4591236 15.4554371,66.3566346 15.8754392,65.231629 C16.2954413,64.1066233 16.5954383,63.0341341 16.7754392,62.014129 C16.9554401,60.9941239 16.9254404,60.1691321 16.6854392,59.539129 C16.5354384,58.939126 16.3179406,58.436631 16.0329392,58.031629 C15.7479377,57.6266269 15.3354419,57.3941293 14.7954392,57.334129 L13.5804392,58.099129 Z M22.5804392,32.629129 C23.0904417,31.5491236 23.5479371,30.4391347 23.9529392,29.299129 C24.3579412,28.1591233 24.6879379,27.0341345 24.9429392,25.924129 C25.1979404,24.8141234 25.3929385,23.7641339 25.5279392,22.774129 C25.6629398,21.784124 25.7154393,20.8991329 25.6854392,20.119129 C25.655439,19.3991254 25.5654399,18.8141312 25.4154392,18.364129 C25.2654384,17.9141267 25.0929401,17.6441294 24.8979392,17.554129 C24.7029382,17.4641285 24.4854404,17.5841273 24.2454392,17.914129 C24.005438,18.2441306 23.7954401,18.8291248 23.6154392,19.669129 C22.775435,23.269147 21.9129436,26.8091116 21.0279392,30.289129 C20.1429347,33.7691464 19.2354438,37.2341117 18.3054392,40.684129 C18.9054422,39.694124 19.5504357,38.5541354 20.2404392,37.264129 C20.9304426,35.9741225 21.7104348,34.429138 22.5804392,32.629129 Z M39.0054392,46.174129 C37.9254338,48.2441393 36.9279437,49.9241225 36.0129392,51.214129 C35.0979346,52.5041354 34.257943,53.5091254 33.4929392,54.229129 C32.7279353,54.9491326 32.0229424,55.4216278 31.3779392,55.646629 C30.7329359,55.8716301 30.1554417,55.9541293 29.6454392,55.894129 C29.1054365,55.8641288 28.6254413,55.6616308 28.2054392,55.286629 C27.7854371,54.9116271 27.4179407,54.4841314 27.1029392,54.004129 C26.7879376,53.5241266 26.5404401,53.0216316 26.3604392,52.496629 C26.1804383,51.9716263 26.0604395,51.5291308 26.0004392,51.169129 C25.8504384,50.1191237 25.9029379,48.6416385 26.1579392,46.736629 C26.4129404,44.8316194 26.7804368,42.7091407 27.2604392,40.369129 C27.7404416,38.0291173 28.295436,35.5766418 28.9254392,33.011629 C29.5554423,30.4466161 30.185436,27.9491411 30.8154392,25.519129 C31.4454423,23.0891168 32.0379364,20.8466392 32.5929392,18.791629 C33.1479419,16.7366187 33.5904375,15.0491356 33.9204392,13.729129 C34.1604404,12.8891248 34.497937,12.3866298 34.9329392,12.221629 C35.3679413,12.0566281 35.9604354,11.9891288 36.7104392,12.019129 C37.1604414,12.0791293 37.5579374,12.1466286 37.9029392,12.221629 C38.2479409,12.2966293 38.5179382,12.431628 38.7129392,12.626629 C38.9079401,12.8216299 39.020439,13.0991272 39.0504392,13.459129 C39.0804393,13.8191308 39.0204399,14.3141258 38.8704392,14.944129 C38.7504386,15.3941312 38.5704404,16.1366238 38.3304392,17.171629 C38.090438,18.2066341 37.7979409,19.4366218 37.4529392,20.861629 C37.1079374,22.2866361 36.7404411,23.8391206 36.3504392,25.519129 C35.9604372,27.1991374 35.5554413,28.9091203 35.1354392,30.649129 C34.7154371,32.3891377 34.3104411,34.0916206 33.9204392,35.756629 C33.5304372,37.4216373 33.1779407,38.951622 32.8629392,40.346629 C32.5479376,41.7416359 32.2779403,42.934124 32.0529392,43.924129 C31.827938,44.9141339 31.6704396,45.5891272 31.5804392,45.949129 C31.4904387,46.3391309 31.4754389,46.7216271 31.5354392,47.096629 C31.5954395,47.4716308 31.7004384,47.8016275 31.8504392,48.086629 C32.0004399,48.3716304 32.187938,48.5816283 32.4129392,48.716629 C32.6379403,48.8516296 32.870438,48.8891293 33.1104392,48.829129 C33.5004411,48.6491281 33.9354368,48.3341312 34.4154392,47.884129 C34.8954416,47.4341267 35.352937,46.9166319 35.7879392,46.331629 C36.2229413,45.746626 36.6204374,45.146632 36.9804392,44.531629 C37.340441,43.9166259 37.6104383,43.3541315 37.7904392,42.844129 L39.7254392,37.984129 C39.9654404,37.6241272 40.2204378,37.4516289 40.4904392,37.466629 C40.7604405,37.481629 41.0004381,37.6091278 41.2104392,37.849129 C41.4204402,38.0891302 41.5629388,38.4191269 41.6379392,38.839129 C41.7129395,39.2591311 41.6904398,39.664127 41.5704392,40.054129 C41.1504371,41.0441339 40.7454411,42.0566238 40.3554392,43.091629 C39.9654372,44.1266341 39.5154417,45.1541239 39.0054392,46.174129 Z M48.1854392,29.794129 C48.6354414,29.7341287 49.0554372,29.7416286 49.4454392,29.816629 C49.8354411,29.8916293 50.2104374,30.0041282 50.5704392,30.154129 C50.8104404,29.8241273 51.0654378,29.55413 51.3354392,29.344129 C51.6054405,29.1341279 51.9054375,29.029129 52.2354392,29.029129 C53.0454432,29.029129 53.667937,29.3666256 54.1029392,30.041629 C54.5379413,30.7166323 54.875438,31.5791237 55.1154392,32.629129 C55.4154407,33.9191354 55.4754401,35.3516211 55.2954392,36.926629 C55.1154383,38.5016368 54.845441,40.0091218 54.4854392,41.449129 C54.7254404,41.5991297 54.9504381,41.7041287 55.1604392,41.764129 C55.3704402,41.8241293 55.595438,41.8841287 55.8354392,41.944129 C56.3754419,41.944129 56.9529361,41.5766326 57.5679392,40.841629 C58.1829422,40.1066253 58.7004371,39.2141342 59.1204392,38.164129 C59.2704399,37.7441269 59.4804378,37.526629 59.7504392,37.511629 C60.0204405,37.4966289 60.267938,37.6091278 60.4929392,37.849129 C60.7179403,38.0891302 60.8904386,38.4191269 61.0104392,38.839129 C61.1304398,39.2591311 61.1154399,39.664127 60.9654392,40.054129 C60.2754357,41.9141383 59.5329431,43.1741257 58.7379392,43.834129 C57.9429352,44.4941323 57.1554431,44.7791294 56.3754392,44.689129 C55.5054348,44.6291287 54.7104428,44.3591314 53.9904392,43.879129 C53.6904377,44.9891345 53.3004416,46.0241242 52.8204392,46.984129 C52.3404368,48.1241347 51.7479427,49.2341236 51.0429392,50.314129 C50.3379356,51.3941344 49.5654434,52.3616247 48.7254392,53.216629 C47.885435,54.0716332 47.0004438,54.7466265 46.0704392,55.241629 C45.1404345,55.7366314 44.2104438,55.9691291 43.2804392,55.939129 C42.5904357,55.9091288 41.960442,55.6991309 41.3904392,55.309129 C40.8204363,54.919127 40.3254413,54.4466317 39.9054392,53.891629 C39.4854371,53.3366262 39.1329406,52.7291323 38.8479392,52.069129 C38.5629377,51.4091257 38.3604398,50.779132 38.2404392,50.179129 C37.9404377,48.7091216 37.8279388,47.1866368 37.9029392,45.611629 C37.9779395,44.0366211 38.2179371,42.5066364 38.6229392,41.021629 C39.0279412,39.5366215 39.5604359,38.1266356 40.2204392,36.791629 C40.8804389,35.4566223 41.630435,34.2791341 42.4704392,33.259129 C43.3104434,32.2391239 44.2179343,31.421632 45.1929392,30.806629 C46.167944,30.1916259 47.1654341,29.8541293 48.1854392,29.794129 Z M46.6554392,48.874129 C47.1954419,48.874129 47.7204366,48.671631 48.2304392,48.266629 C48.7404417,47.8616269 49.2354368,47.3216323 49.7154392,46.646629 C50.1954416,45.9716256 50.6229373,45.2066332 50.9979392,44.351629 C51.372941,43.4966247 51.6954378,42.6191335 51.9654392,41.719129 C51.1854353,40.5791233 50.615441,39.1541375 50.2554392,37.444129 C50.1054384,36.844126 49.9779397,36.2591318 49.8729392,35.689129 C49.7679386,35.1191261 49.7004393,34.5491318 49.6704392,33.979129 L49.6704392,33.664129 C48.8904353,33.7541294 48.1779424,34.1441255 47.5329392,34.834129 C46.8879359,35.5241324 46.3254416,36.364124 45.8454392,37.354129 C45.4854374,38.0741326 45.1779404,38.8541248 44.9229392,39.694129 C44.6679379,40.5341332 44.4729398,41.3666248 44.3379392,42.191629 C44.2029385,43.0166331 44.1204393,43.7966253 44.0904392,44.531629 C44.060439,45.2666326 44.1204384,45.9041263 44.2704392,46.444129 C44.4504401,47.1941327 44.7054375,47.7941267 45.0354392,48.244129 C45.3654408,48.6941312 45.9054354,48.9041291 46.6554392,48.874129 Z M52.1904392,37.444129 C52.3404399,38.0741321 52.4904384,38.584127 52.6404392,38.974129 C52.9404407,37.7441228 53.105439,36.5891344 53.1354392,35.509129 C53.1654393,35.3591282 53.2029389,35.0966308 53.2479392,34.721629 C53.2929394,34.3466271 53.3079392,33.9641309 53.2929392,33.574129 C53.2779391,33.184127 53.2254396,32.8316305 53.1354392,32.516629 C53.0454387,32.2016274 52.8954402,32.044129 52.6854392,32.044129 C52.445438,32.044129 52.24294,32.336626 52.0779392,32.921629 C51.9129383,33.5066319 51.8304392,34.1291257 51.8304392,34.789129 C51.8604393,35.2391312 51.8979389,35.6891267 51.9429392,36.139129 C51.9879394,36.5891312 52.0704386,37.0241269 52.1904392,37.444129 Z M82.0704392,46.174129 C80.9904338,48.2441393 80.0004437,49.9241225 79.1004392,51.214129 C78.2004347,52.5041354 77.3604431,53.5091254 76.5804392,54.229129 C75.8004353,54.9491326 75.0804425,55.4216278 74.4204392,55.646629 C73.7604359,55.8716301 73.145442,55.9541293 72.5754392,55.894129 C72.0654366,55.8641288 71.6004413,55.6316311 71.1804392,55.196629 C70.7604371,54.7616268 70.4004407,54.2591318 70.1004392,53.689129 C69.8004377,53.1191261 69.5529401,52.5416319 69.3579392,51.956629 C69.1629382,51.371626 69.0504393,50.8991308 69.0204392,50.539129 C68.990439,50.4491285 68.9754392,50.29913 68.9754392,50.089129 C68.5254369,50.899133 68.0379418,51.6566254 67.5129392,52.361629 C66.9879365,53.0666325 66.4479419,53.6891263 65.8929392,54.229129 C65.3379364,54.7691317 64.7529422,55.1891275 64.1379392,55.489129 C63.5229361,55.7891305 62.9004423,55.939129 62.2704392,55.939129 C61.5804357,55.9091288 60.950442,55.6991309 60.3804392,55.309129 C59.8104363,54.919127 59.3154413,54.4466317 58.8954392,53.891629 C58.4754371,53.3366262 58.1154407,52.7291323 57.8154392,52.069129 C57.5154377,51.4091257 57.3054398,50.779132 57.1854392,50.179129 C56.8554375,48.7091216 56.7429386,47.171637 56.8479392,45.566629 C56.9529397,43.9616209 57.2154371,42.4016365 57.6354392,40.886629 C58.0554413,39.3716214 58.6104357,37.9391357 59.3004392,36.589129 C59.9904426,35.2391222 60.755435,34.0541341 61.5954392,33.034129 C62.4354434,32.0141239 63.3279344,31.2116319 64.2729392,30.626629 C65.2179439,30.041626 66.1704344,29.7641288 67.1304392,29.794129 C68.3304452,29.8541293 69.3354351,30.1691261 70.1454392,30.739129 C70.9554432,31.3091318 71.6304365,32.1341236 72.1704392,33.214129 C72.2304395,33.0941284 72.2604392,32.9816295 72.2604392,32.876629 C72.2604392,32.7716284 72.2904389,32.6591296 72.3504392,32.539129 C72.5904404,31.6991248 72.927937,31.2041297 73.3629392,31.054129 C73.7979413,30.9041282 74.4054353,30.8741285 75.1854392,30.964129 C75.6354414,30.9941291 76.0254375,31.0466286 76.3554392,31.121629 C76.6854408,31.1966293 76.9479382,31.331628 77.1429392,31.526629 C77.3379401,31.7216299 77.450439,31.9991272 77.4804392,32.359129 C77.5104393,32.7191308 77.4504399,33.2141258 77.3004392,33.844129 C77.0904381,34.7141333 76.8504405,35.6891236 76.5804392,36.769129 C76.3104378,37.8491344 76.0404405,38.9441234 75.7704392,40.054129 C75.5004378,41.1641345 75.2454404,42.2366238 75.0054392,43.271629 C74.765438,44.3066341 74.5704399,45.1991252 74.4204392,45.949129 C74.3304387,46.3391309 74.3229388,46.7216271 74.3979392,47.096629 C74.4729395,47.4716308 74.6079382,47.8016275 74.8029392,48.086629 C74.9979401,48.3716304 75.2229379,48.5816283 75.4779392,48.716629 C75.7329404,48.8516296 75.980438,48.8891293 76.2204392,48.829129 C76.6104411,48.6491281 77.0379368,48.3341312 77.5029392,47.884129 C77.9679415,47.4341267 78.417937,46.9166319 78.8529392,46.331629 C79.2879413,45.746626 79.6854374,45.146632 80.0454392,44.531629 C80.405441,43.9166259 80.6754383,43.3541315 80.8554392,42.844129 L82.7904392,37.984129 C83.0304404,37.6241272 83.2929377,37.4516289 83.5779392,37.466629 C83.8629406,37.481629 84.1104381,37.6091278 84.3204392,37.849129 C84.5304402,38.0891302 84.6804387,38.4191269 84.7704392,38.839129 C84.8604396,39.2591311 84.8304399,39.664127 84.6804392,40.054129 C84.2604371,41.0441339 83.8479412,42.0566238 83.4429392,43.091629 C83.0379371,44.1266341 82.5804417,45.1541239 82.0704392,46.174129 Z M65.5554392,48.874129 C66.3354431,48.874129 67.0854356,48.2591351 67.8054392,47.029129 C68.5254428,45.7991228 69.2304357,43.879142 69.9204392,41.269129 L69.9204392,41.314129 C70.0104396,40.9841273 70.0929388,40.6466307 70.1679392,40.301629 C70.2429395,39.9566272 70.3404386,39.6041308 70.4604392,39.244129 C70.6404401,38.6141258 70.7529389,37.9841321 70.7979392,37.354129 C70.8429394,36.7241258 70.8354395,36.1616314 70.7754392,35.666629 C70.7154389,35.1716265 70.5954401,34.7516307 70.4154392,34.406629 C70.2354383,34.0616272 69.9954407,33.8441294 69.6954392,33.754129 C68.9754356,33.5141278 68.2929424,33.5666272 67.6479392,33.911629 C67.0029359,34.2566307 66.4104419,34.7966253 65.8704392,35.531629 C65.3304365,36.2666326 64.8579412,37.129124 64.4529392,38.119129 C64.0479371,39.1091339 63.7254404,40.1141239 63.4854392,41.134129 C63.245438,42.1541341 63.0954395,43.1366242 63.0354392,44.081629 C62.9754389,45.0266337 63.0204384,45.8141258 63.1704392,46.444129 C63.3504401,47.1941327 63.6654369,47.7941267 64.1154392,48.244129 C64.5654414,48.6941312 65.0454366,48.9041291 65.5554392,48.874129 Z M85.1304392,22.864129 C84.5304362,22.864129 84.0879406,22.6841308 83.8029392,22.324129 C83.5179377,21.9641272 83.3679392,21.5666311 83.3529392,21.131629 C83.3379391,20.6966268 83.450438,20.2991308 83.6904392,19.939129 C83.9304404,19.5791272 84.3054366,19.4141288 84.8154392,19.444129 L87.3354392,19.489129 C87.6654408,18.3491233 87.9579379,17.2916338 88.2129392,16.316629 C88.4679404,15.3416241 88.6854383,14.4791327 88.8654392,13.729129 C89.1054404,12.8891248 89.442937,12.3866298 89.8779392,12.221629 C90.3129413,12.0566281 90.9054354,11.9891288 91.6554392,12.019129 C92.1054414,12.0791293 92.5029374,12.1466286 92.8479392,12.221629 C93.1929409,12.2966293 93.4629382,12.431628 93.6579392,12.626629 C93.8529401,12.8216299 93.965439,13.0991272 93.9954392,13.459129 C94.0254393,13.8191308 93.9654399,14.3141258 93.8154392,14.944129 C93.7254387,15.3341309 93.5754402,15.926625 93.3654392,16.721629 C93.1554381,17.5166329 92.9304404,18.4691234 92.6904392,19.579129 L95.3454392,19.624129 C95.8854419,19.5941288 96.2979377,19.7591272 96.5829392,20.119129 C96.8679406,20.4791308 97.0179391,20.8841267 97.0329392,21.334129 C97.0479392,21.7841312 96.9354404,22.1816272 96.6954392,22.526629 C96.455438,22.8716307 96.0804417,23.0141293 95.5704392,22.954129 L91.8804392,22.954129 C91.5504375,24.3941362 91.197941,25.909121 90.8229392,27.499129 L89.6979392,32.269129 C89.3229373,33.8591369 88.955441,35.4041215 88.5954392,36.904129 C88.2354374,38.4041365 87.9129406,39.7691228 87.6279392,40.999129 C87.3429377,42.2291351 87.1029401,43.2791246 86.9079392,44.149129 C86.7129382,45.0191333 86.5854395,45.6191273 86.5254392,45.949129 C86.4354387,46.3391309 86.4204389,46.7216271 86.4804392,47.096629 C86.5404395,47.4716308 86.6454384,47.8016275 86.7954392,48.086629 C86.9454399,48.3716304 87.132938,48.5816283 87.3579392,48.716629 C87.5829403,48.8516296 87.815438,48.8891293 88.0554392,48.829129 C88.4454411,48.6491281 88.8804368,48.3341312 89.3604392,47.884129 C89.8404416,47.4341267 90.297937,46.9166319 90.7329392,46.331629 C91.1679413,45.746626 91.5654374,45.146632 91.9254392,44.531629 C92.285441,43.9166259 92.5554383,43.3541315 92.7354392,42.844129 L94.6704392,37.984129 C94.9104404,37.6241272 95.1654378,37.4516289 95.4354392,37.466629 C95.7054405,37.481629 95.9454381,37.6091278 96.1554392,37.849129 C96.3654402,38.0891302 96.5079388,38.4191269 96.5829392,38.839129 C96.6579395,39.2591311 96.6354398,39.664127 96.5154392,40.054129 C96.0954371,41.0441339 95.6904411,42.0566238 95.3004392,43.091629 C94.9104372,44.1266341 94.4604417,45.1541239 93.9504392,46.174129 C92.8704338,48.2441393 91.8729437,49.9241225 90.9579392,51.214129 C90.0429346,52.5041354 89.202943,53.5091254 88.4379392,54.229129 C87.6729353,54.9491326 86.9679424,55.4216278 86.3229392,55.646629 C85.6779359,55.8716301 85.1004417,55.9541293 84.5904392,55.894129 C84.0504365,55.8641288 83.5704413,55.6616308 83.1504392,55.286629 C82.7304371,54.9116271 82.3629407,54.4841314 82.0479392,54.004129 C81.7329376,53.5241266 81.4854401,53.0216316 81.3054392,52.496629 C81.1254383,51.9716263 81.0054395,51.5291308 80.9454392,51.169129 C80.8554387,50.3891251 80.8629386,49.3841351 80.9679392,48.154129 C81.0729397,46.9241228 81.2529379,45.5441366 81.5079392,44.014129 C81.7629404,42.4841213 82.0854372,40.8416377 82.4754392,39.086629 C82.8654411,37.3316202 83.277937,35.5316382 83.7129392,33.686629 C84.1479413,31.8416197 84.5979368,30.0041381 85.0629392,28.174129 C85.5279415,26.3441198 85.9854369,24.5891374 86.4354392,22.909129 L85.1304392,22.864129 Z M105.830439,46.174129 C104.750434,48.2441393 103.760444,49.9241225 102.860439,51.214129 C101.960435,52.5041354 101.127943,53.5091254 100.362939,54.229129 C99.5979353,54.9491326 98.8929424,55.4216278 98.2479392,55.646629 C97.6029359,55.8716301 97.0254417,55.9541293 96.5154392,55.894129 C95.9754365,55.8641288 95.4954413,55.6316311 95.0754392,55.196629 C94.6554371,54.7616268 94.2954407,54.2591318 93.9954392,53.689129 C93.6954377,53.1191261 93.4554401,52.5416319 93.2754392,51.956629 C93.0954383,51.371626 92.9754395,50.8991308 92.9154392,50.539129 C92.7654384,49.0991218 92.7654384,47.6966358 92.9154392,46.331629 C93.0654399,44.9666221 93.2979376,43.5641362 93.6129392,42.124129 C93.9279407,40.6841218 94.3179368,39.1841368 94.7829392,37.624129 C95.2479415,36.0641212 95.7204368,34.3691381 96.2004392,32.539129 C96.4404404,31.6991248 96.7629371,31.2041297 97.1679392,31.054129 C97.5729412,30.9041282 98.1504354,30.8741285 98.9004392,30.964129 C99.3504414,30.9941291 99.7404375,31.0466286 100.070439,31.121629 C100.400441,31.1966293 100.662938,31.331628 100.857939,31.526629 C101.05294,31.7216299 101.172939,31.9991272 101.217939,32.359129 C101.262939,32.7191308 101.21044,33.2141258 101.060439,33.844129 C100.850438,34.7141333 100.610441,35.6891236 100.340439,36.769129 C100.070438,37.8491344 99.8004405,38.9441234 99.5304392,40.054129 C99.2604378,41.1641345 99.0054404,42.2366238 98.7654392,43.271629 C98.525438,44.3066341 98.3154401,45.1991252 98.1354392,45.949129 C98.0454387,46.3391309 98.0454387,46.7216271 98.1354392,47.096629 C98.2254396,47.4716308 98.3754381,47.8016275 98.5854392,48.086629 C98.7954402,48.3716304 99.020438,48.5816283 99.2604392,48.716629 C99.5004404,48.8516296 99.740438,48.8891293 99.9804392,48.829129 C100.370441,48.6491281 100.797937,48.3341312 101.262939,47.884129 C101.727941,47.4341267 102.177937,46.9166319 102.612939,46.331629 C103.047941,45.746626 103.445437,45.146632 103.805439,44.531629 C104.165441,43.9166259 104.435438,43.3541315 104.615439,42.844129 L106.550439,37.984129 C106.79044,37.6241272 107.052938,37.4516289 107.337939,37.466629 C107.622941,37.481629 107.870438,37.6091278 108.080439,37.849129 C108.29044,38.0891302 108.432939,38.4191269 108.507939,38.839129 C108.58294,39.2591311 108.56044,39.664127 108.440439,40.054129 C108.020437,41.0441339 107.607941,42.0566238 107.202939,43.091629 C106.797937,44.1266341 106.340442,45.1541239 105.830439,46.174129 Z M99.1704392,26.149129 C98.8404375,25.6991267 98.5779401,25.1966317 98.3829392,24.641629 C98.1879382,24.0866262 98.0679394,23.5316317 98.0229392,22.976629 C97.9779389,22.4216262 98.0079386,21.8891315 98.1129392,21.379129 C98.2179397,20.8691264 98.4054378,20.4041311 98.6754392,19.984129 C99.245442,19.0841245 99.9729347,18.6416289 100.857939,18.656629 C101.742944,18.671629 102.515436,19.1141246 103.175439,19.984129 C103.535441,20.4341312 103.812938,20.9291263 104.007939,21.469129 C104.20294,22.0091317 104.322939,22.5641261 104.367939,23.134129 C104.412939,23.7041318 104.38294,24.2591263 104.277939,24.799129 C104.172939,25.3391317 103.985441,25.804127 103.715439,26.194129 C103.115436,27.0641333 102.372944,27.491629 101.487939,27.476629 C100.602935,27.4616289 99.8304425,27.0191333 99.1704392,26.149129 Z M120.860439,55.894129 C120.350437,55.9541293 119.877941,55.8641302 119.442939,55.624129 C119.007937,55.3841278 118.625441,55.061631 118.295439,54.656629 C117.965438,54.2516269 117.68044,53.7866316 117.440439,53.261629 C117.200438,52.7366263 117.03544,52.2041317 116.945439,51.664129 C116.825439,50.9741255 116.757939,50.3591317 116.742939,49.819129 C116.727939,49.2791263 116.757939,48.7466316 116.832939,48.221629 C116.90794,47.6966263 117.020438,47.1491318 117.170439,46.579129 C117.32044,46.0091261 117.485438,45.3641326 117.665439,44.644129 L119.555439,36.634129 C119.76544,35.9741257 119.75794,35.5616298 119.532939,35.396629 C119.307938,35.2316281 118.925442,35.3966265 118.385439,35.891629 C117.845436,36.3866314 117.185443,37.2491228 116.405439,38.479129 C115.625435,39.7091351 114.800444,41.3891183 113.930439,43.519129 L113.705439,44.059129 C113.345437,45.5891366 112.925442,47.1941206 112.445439,48.874129 C111.965437,50.5541374 111.455442,52.3841191 110.915439,54.364129 C110.735438,55.2341333 110.435441,55.7366283 110.015439,55.871629 C109.595437,56.0066296 109.040443,56.0441293 108.350439,55.984129 C107.870437,55.9541288 107.450441,55.8941294 107.090439,55.804129 C106.730437,55.7141285 106.45294,55.5716299 106.257939,55.376629 C106.062938,55.181628 105.950439,54.9041308 105.920439,54.544129 C105.890439,54.1841272 105.965438,53.704132 106.145439,53.104129 L108.665439,42.979129 C108.75544,42.4691264 108.867938,41.9216319 109.002939,41.336629 C109.13794,40.751626 109.280438,40.1441321 109.430439,39.514129 C109.58044,38.6441246 109.60294,38.1566295 109.497939,38.051629 C109.392939,37.9466284 109.26544,38.0441275 109.115439,38.344129 L108.485439,40.054129 C108.305438,40.654132 108.072941,40.9991285 107.787939,41.089129 C107.502938,41.1791294 107.24794,41.0966302 107.022939,40.841629 C106.797938,40.5866277 106.63294,40.2041315 106.527939,39.694129 C106.422939,39.1841264 106.475438,38.6141321 106.685439,37.984129 C106.985441,37.0841245 107.315437,36.1991333 107.675439,35.329129 C108.035441,34.4591246 108.432937,33.6566326 108.867939,32.921629 C109.302941,32.1866253 109.767937,31.5416317 110.262939,30.986629 C110.757942,30.4316262 111.275436,30.0191303 111.815439,29.749129 C112.415442,29.4491275 113.000436,29.3891281 113.570439,29.569129 C114.140442,29.7491299 114.627937,30.1091263 115.032939,30.649129 C115.437941,31.1891317 115.730438,31.8716248 115.910439,32.696629 C116.09044,33.5216331 116.09044,34.429124 115.910439,35.419129 C116.210441,34.7291255 116.547937,34.0691321 116.922939,33.439129 C117.297941,32.8091258 117.687937,32.2466314 118.092939,31.751629 C118.497941,31.2566265 118.925437,30.8591305 119.375439,30.559129 C119.825441,30.2591275 120.290437,30.0791293 120.770439,30.019129 C121.400442,29.9591287 122.022936,30.0641276 122.637939,30.334129 C123.252942,30.6041303 123.777937,31.031626 124.212939,31.616629 C124.647941,32.2016319 124.955438,32.9366245 125.135439,33.821629 C125.31544,34.7066334 125.270441,35.7191233 125.000439,36.859129 C124.850438,37.5491324 124.70044,38.2016259 124.550439,38.816629 C124.400438,39.431632 124.24294,40.0766256 124.077939,40.751629 C123.912938,41.4266323 123.73294,42.1841248 123.537939,43.024129 C123.342938,43.8641332 123.110441,44.8691231 122.840439,46.039129 C122.630438,46.9091333 122.540439,47.5841266 122.570439,48.064129 C122.600439,48.5441314 122.705438,48.8891279 122.885439,49.099129 C123.06544,49.30913 123.275438,49.4216289 123.515439,49.436629 C123.75544,49.451629 123.995438,49.4141294 124.235439,49.324129 C124.655441,49.2041284 125.105437,48.8966314 125.585439,48.401629 C126.065442,47.9066265 126.530437,47.3366322 126.980439,46.691629 C127.430441,46.0466257 127.842937,45.3791324 128.217939,44.689129 C128.592941,43.9991255 128.885438,43.3841317 129.095439,42.844129 L131.075439,37.984129 C131.31544,37.6241272 131.570438,37.4516289 131.840439,37.466629 C132.110441,37.481629 132.350438,37.6091278 132.560439,37.849129 C132.77044,38.0891302 132.912939,38.4191269 132.987939,38.839129 C133.06294,39.2591311 133.04044,39.664127 132.920439,40.054129 C132.500437,41.0441339 132.095441,42.0566238 131.705439,43.091629 C131.315437,44.1266341 130.865442,45.1541239 130.355439,46.174129 C129.275434,48.2441393 128.270444,49.9091227 127.340439,51.169129 C126.410435,52.4291353 125.555443,53.4041255 124.775439,54.094129 C123.995435,54.7841324 123.275442,55.2491278 122.615439,55.489129 C121.955436,55.7291302 121.370442,55.8641288 120.860439,55.894129 Z M149.795439,33.844129 C148.925435,37.3841467 148.137943,40.7666128 147.432939,43.991629 C146.727936,47.2166451 146.000443,50.3741135 145.250439,53.464129 C146.150444,52.6241248 147.035435,51.7166338 147.905439,50.741629 C148.775444,49.7666241 149.630435,48.6566352 150.470439,47.411629 C151.310443,46.1666227 152.135435,44.7716367 152.945439,43.226629 C153.755443,41.6816212 154.535435,39.9341387 155.285439,37.984129 C155.52544,37.6241272 155.787938,37.4516289 156.072939,37.466629 C156.357941,37.481629 156.605438,37.6091278 156.815439,37.849129 C157.02544,38.0891302 157.175439,38.4191269 157.265439,38.839129 C157.35544,39.2591311 157.32544,39.664127 157.175439,40.054129 C156.245435,42.5441414 155.255444,44.7416194 154.205439,46.646629 C153.155434,48.5516385 152.060445,50.2466215 150.920439,51.731629 C149.780433,53.2166364 148.617945,54.5291233 147.432939,55.669129 C146.247933,56.8091347 145.070445,57.874124 143.900439,58.864129 C143.780439,59.2241308 143.67544,59.5841272 143.585439,59.944129 C143.495439,60.3041308 143.40544,60.679127 143.315439,61.069129 C143.075438,62.0891341 142.84294,63.2291227 142.617939,64.489129 C142.392938,65.7491353 142.137941,67.0166226 141.852939,68.291629 C141.567938,69.5666353 141.230441,70.8116229 140.840439,72.026629 C140.450437,73.241635 139.962942,74.3216242 139.377939,75.266629 C138.792936,76.2116337 138.080443,76.9541263 137.240439,77.494129 C136.400435,78.0341317 135.410445,78.2891291 134.270439,78.259129 C133.310434,78.1391284 132.425443,77.5616341 131.615439,76.526629 C130.805435,75.4916238 130.28044,74.2841359 130.040439,72.904129 C129.800438,71.4041215 129.912937,70.0016355 130.377939,68.696629 C130.842941,67.3916224 131.517935,66.1691347 132.402939,65.029129 C133.287944,63.8891233 134.285434,62.816634 135.395439,61.811629 C136.505445,60.8066239 137.600434,59.8541335 138.680439,58.954129 L139.895439,52.429129 C139.115435,53.4791342 138.297943,54.3341257 137.442939,54.994129 C136.587935,55.6541323 135.680444,55.9691291 134.720439,55.939129 C134.030436,55.9091288 133.400442,55.6991309 132.830439,55.309129 C132.260436,54.919127 131.765441,54.4466317 131.345439,53.891629 C130.925437,53.3366262 130.565441,52.7291323 130.265439,52.069129 C129.965438,51.4091257 129.75544,50.779132 129.635439,50.179129 C129.305438,48.7091216 129.192939,47.171637 129.297939,45.566629 C129.40294,43.9616209 129.665437,42.4016365 130.085439,40.886629 C130.505441,39.3716214 131.052936,37.9391357 131.727939,36.589129 C132.402943,35.2391222 133.160435,34.0541341 134.000439,33.034129 C134.840443,32.0141239 135.740434,31.2116319 136.700439,30.626629 C137.660444,30.041626 138.620434,29.7641288 139.580439,29.794129 C140.780445,29.8541293 141.785435,30.1691261 142.595439,30.739129 C143.405443,31.3091318 144.080436,32.1341236 144.620439,33.214129 L144.845439,32.539129 C145.115441,31.7591251 145.460437,31.2791299 145.880439,31.099129 C146.300441,30.9191281 146.900435,30.8741285 147.680439,30.964129 C148.130441,30.9941291 148.520438,31.0466286 148.850439,31.121629 C149.180441,31.1966293 149.442938,31.331628 149.637939,31.526629 C149.83294,31.7216299 149.945439,31.9991272 149.975439,32.359129 C150.005439,32.7191308 149.94544,33.2141258 149.795439,33.844129 Z M143.000439,38.884129 C143.12044,38.284126 143.195439,37.6916319 143.225439,37.106629 C143.255439,36.521626 143.240439,35.9966313 143.180439,35.531629 C143.120439,35.0666266 143.00044,34.6766305 142.820439,34.361629 C142.640438,34.0466274 142.415441,33.8441294 142.145439,33.754129 C141.425436,33.5141278 140.742942,33.5666272 140.097939,33.911629 C139.452936,34.2566307 138.860442,34.7966253 138.320439,35.531629 C137.780436,36.2666326 137.307941,37.129124 136.902939,38.119129 C136.497937,39.1091339 136.17544,40.1141239 135.935439,41.134129 C135.695438,42.1541341 135.545439,43.1366242 135.485439,44.081629 C135.425439,45.0266337 135.470438,45.8141258 135.620439,46.444129 C135.80044,47.1941327 136.115437,47.7941267 136.565439,48.244129 C137.015441,48.6941312 137.495437,48.9041291 138.005439,48.874129 C138.785443,48.874129 139.535436,48.2591351 140.255439,47.029129 C140.975443,45.7991228 141.680436,43.879142 142.370439,41.269129 L143.000439,38.884129 Z M137.015439,67.324129 C137.13544,66.8141264 137.240439,66.3116314 137.330439,65.816629 C137.42044,65.3216265 137.510439,64.8191315 137.600439,64.309129 C136.880436,65.0291326 136.190442,65.7941249 135.530439,66.604129 C134.870436,67.414133 134.255442,68.2991242 133.685439,69.259129 C133.505438,69.5591305 133.32544,69.9566265 133.145439,70.451629 C132.965438,70.9466314 132.845439,71.4566263 132.785439,71.981629 C132.725439,72.5066316 132.747939,72.9791269 132.852939,73.399129 C132.95794,73.8191311 133.220437,74.0891284 133.640439,74.209129 C134.120442,74.1791288 134.555437,73.8716319 134.945439,73.286629 C135.335441,72.701626 135.665438,72.0341327 135.935439,71.284129 C136.205441,70.5341252 136.430438,69.7841327 136.610439,69.034129 C136.79044,68.2841252 136.925439,67.7141309 137.015439,67.324129 Z" id="floating" transform="translate(81.114134, 45.516629) rotate(-8.000000) translate(-81.114134, -45.516629) "></path>
                    <path d="M65.4070916,73.5331031 C64.3270862,75.6031135 63.3370961,77.2830967 62.4370916,78.5731031 C61.5370871,79.8631096 60.7045954,80.8680995 59.9395916,81.5881031 C59.1745878,82.3081067 58.4695948,82.780602 57.8245916,83.0056031 C57.1795884,83.2306043 56.6020942,83.3131034 56.0920916,83.2531031 C55.5520889,83.223103 55.0720937,82.9906053 54.6520916,82.5556031 C54.2320895,82.120601 53.8720931,81.618106 53.5720916,81.0481031 C53.2720901,80.4781003 53.0320925,79.9006061 52.8520916,79.3156031 C52.6720907,78.7306002 52.5520919,78.2581049 52.4920916,77.8981031 C52.3420909,76.4580959 52.3420909,75.05561 52.4920916,73.6906031 C52.6420924,72.3255963 52.87459,70.9231103 53.1895916,69.4831031 C53.5045932,68.0430959 53.8945893,66.5431109 54.3595916,64.9831031 C54.8245939,63.4230953 55.2970892,61.7281123 55.7770916,59.8981031 C56.0170928,59.0580989 56.3395896,58.5631039 56.7445916,58.4131031 C57.1495936,58.2631024 57.7270879,58.2331027 58.4770916,58.3231031 C58.9270939,58.3531033 59.31709,58.4056028 59.6470916,58.4806031 C59.9770933,58.5556035 60.2395906,58.6906022 60.4345916,58.8856031 C60.6295926,59.0806041 60.7495914,59.3581013 60.7945916,59.7181031 C60.8395918,60.0781049 60.7870924,60.5731 60.6370916,61.2031031 C60.4270906,62.0731075 60.187093,63.0480977 59.9170916,64.1281031 C59.6470903,65.2081085 59.377093,66.3030976 59.1070916,67.4131031 C58.8370903,68.5231087 58.5820928,69.595598 58.3420916,70.6306031 C58.1020904,71.6656083 57.8920925,72.5580994 57.7120916,73.3081031 C57.6220912,73.6981051 57.6220912,74.0806013 57.7120916,74.4556031 C57.8020921,74.830605 57.9520906,75.1606017 58.1620916,75.4456031 C58.3720927,75.7306046 58.5970904,75.9406025 58.8370916,76.0756031 C59.0770928,76.2106038 59.3170904,76.2481034 59.5570916,76.1881031 C59.9470936,76.0081022 60.3745893,75.6931054 60.8395916,75.2431031 C61.3045939,74.7931009 61.7545894,74.2756061 62.1895916,73.6906031 C62.6245938,73.1056002 63.0220898,72.5056062 63.3820916,71.8906031 C63.7420934,71.2756001 64.0120907,70.7131057 64.1920916,70.2031031 L64.8670916,68.4481031 C64.2970888,67.3680977 63.8620931,66.1531099 63.5620916,64.8031031 C63.4120909,64.2031001 63.2770922,63.618106 63.1570916,63.0481031 C63.037091,62.4781003 62.9770916,61.908106 62.9770916,61.3381031 C62.9470915,60.7081 62.992091,60.0931061 63.1120916,59.4931031 C63.2320922,58.8931001 63.4120904,58.3681054 63.6520916,57.9181031 C63.8920928,57.4681009 64.17709,57.1006046 64.5070916,56.8156031 C64.8370933,56.5306017 65.1820898,56.3881031 65.5420916,56.3881031 C66.3520957,56.3881031 66.9670895,56.7255998 67.3870916,57.4006031 C67.8070937,58.0756065 68.1370904,58.9380979 68.3770916,59.9881031 C68.6770931,61.2781096 68.7445924,62.7105953 68.5795916,64.2856031 C68.4145908,65.860611 68.1520934,67.3680959 67.7920916,68.8081031 C68.1820936,69.0481043 68.6170892,69.2131027 69.0970916,69.3031031 C69.6670945,69.3031031 70.2520886,68.9356068 70.8520916,68.2006031 C71.4520946,67.4655995 71.9620895,66.5731084 72.3820916,65.5231031 C72.5620925,65.103101 72.7870903,64.8856032 73.0570916,64.8706031 C73.327093,64.8556031 73.5745905,64.9681019 73.7995916,65.2081031 C74.0245927,65.4481043 74.197091,65.778101 74.3170916,66.1981031 C74.4370922,66.6181052 74.4220924,67.0231012 74.2720916,67.4131031 C73.5820882,69.2731124 72.8395956,70.5330998 72.0445916,71.1931031 C71.2495876,71.8531064 70.4620955,72.1381036 69.6820916,72.0481031 C68.6020862,71.9581027 67.5970963,71.523107 66.6670916,70.7431031 C66.4870907,71.2231055 66.2920927,71.6956008 66.0820916,72.1606031 C65.8720906,72.6256055 65.6470928,73.0831009 65.4070916,73.5331031 Z M65.4520916,64.8031031 C65.5120919,65.0431043 65.5720913,65.2681021 65.6320916,65.4781031 C65.6920919,65.6881042 65.7520913,65.8831022 65.8120916,66.0631031 L66.1270916,65.3431031 C66.2170921,64.923101 66.2845914,64.5031052 66.3295916,64.0831031 C66.3745918,63.663101 66.4120915,63.2581051 66.4420916,62.8681031 C66.4720918,62.7181024 66.5020915,62.455605 66.5320916,62.0806031 C66.5620917,61.7056013 66.5695917,61.3231051 66.5545916,60.9331031 C66.5395915,60.5431012 66.494592,60.1906047 66.4195916,59.8756031 C66.3445912,59.5606016 66.2020927,59.4031031 65.9920916,59.4031031 C65.7520904,59.4031031 65.5420925,59.6956002 65.3620916,60.2806031 C65.1820907,60.8656061 65.0920916,61.4880998 65.0920916,62.1481031 C65.1520919,62.5981054 65.1970915,63.0481009 65.2270916,63.4981031 C65.2570918,63.9481054 65.332091,64.383101 65.4520916,64.8031031 Z M83.4970916,73.5331031 C82.4170862,75.6031135 81.4270961,77.2830967 80.5270916,78.5731031 C79.6270871,79.8631096 78.7945954,80.8680995 78.0295916,81.5881031 C77.2645878,82.3081067 76.5595948,82.780602 75.9145916,83.0056031 C75.2695884,83.2306043 74.6920942,83.3131034 74.1820916,83.2531031 C73.6420889,83.223103 73.1620937,82.9906053 72.7420916,82.5556031 C72.3220895,82.120601 71.9620931,81.618106 71.6620916,81.0481031 C71.3620901,80.4781003 71.1220925,79.9006061 70.9420916,79.3156031 C70.7620907,78.7306002 70.6420919,78.2581049 70.5820916,77.8981031 C70.4320909,76.4580959 70.4320909,75.05561 70.5820916,73.6906031 C70.7320924,72.3255963 70.96459,70.9231103 71.2795916,69.4831031 C71.5945932,68.0430959 71.9845893,66.5431109 72.4495916,64.9831031 C72.9145939,63.4230953 73.3870892,61.7281123 73.8670916,59.8981031 C74.1070928,59.0580989 74.4295896,58.5631039 74.8345916,58.4131031 C75.2395936,58.2631024 75.8170879,58.2331027 76.5670916,58.3231031 C77.0170939,58.3531033 77.40709,58.4056028 77.7370916,58.4806031 C78.0670933,58.5556035 78.3295906,58.6906022 78.5245916,58.8856031 C78.7195926,59.0806041 78.8395914,59.3581013 78.8845916,59.7181031 C78.9295918,60.0781049 78.8770924,60.5731 78.7270916,61.2031031 C78.5170906,62.0731075 78.277093,63.0480977 78.0070916,64.1281031 C77.7370903,65.2081085 77.467093,66.3030976 77.1970916,67.4131031 C76.9270903,68.5231087 76.6720928,69.595598 76.4320916,70.6306031 C76.1920904,71.6656083 75.9820925,72.5580994 75.8020916,73.3081031 C75.7120912,73.6981051 75.7120912,74.0806013 75.8020916,74.4556031 C75.8920921,74.830605 76.0420906,75.1606017 76.2520916,75.4456031 C76.4620927,75.7306046 76.6870904,75.9406025 76.9270916,76.0756031 C77.1670928,76.2106038 77.4070904,76.2481034 77.6470916,76.1881031 C78.0370936,76.0081022 78.4645893,75.6931054 78.9295916,75.2431031 C79.3945939,74.7931009 79.8445894,74.2756061 80.2795916,73.6906031 C80.7145938,73.1056002 81.1120898,72.5056062 81.4720916,71.8906031 C81.8320934,71.2756001 82.1020907,70.7131057 82.2820916,70.2031031 L84.2170916,65.3431031 C84.4570928,64.9831013 84.7195902,64.8106031 85.0045916,64.8256031 C85.289593,64.8406032 85.5370906,64.9681019 85.7470916,65.2081031 C85.9570927,65.4481043 86.0995912,65.778101 86.1745916,66.1981031 C86.249592,66.6181052 86.2270922,67.0231012 86.1070916,67.4131031 C85.6870895,68.4031081 85.2745936,69.415598 84.8695916,70.4506031 C84.4645896,71.4856083 84.0070942,72.513098 83.4970916,73.5331031 Z M76.8370916,53.5081031 C76.50709,53.0581009 76.2445926,52.5556059 76.0495916,52.0006031 C75.8545906,51.4456004 75.7345918,50.8906059 75.6895916,50.3356031 C75.6445914,49.7806004 75.6745911,49.2481057 75.7795916,48.7381031 C75.8845921,48.2281006 76.0720903,47.7631052 76.3420916,47.3431031 C76.9120945,46.4430986 77.6395872,46.0006031 78.5245916,46.0156031 C79.409596,46.0306032 80.1820883,46.4730988 80.8420916,47.3431031 C81.2020934,47.7931054 81.4795906,48.2881004 81.6745916,48.8281031 C81.8695926,49.3681058 81.9895914,49.9231003 82.0345916,50.4931031 C82.0795918,51.063106 82.0495921,51.6181004 81.9445916,52.1581031 C81.8395911,52.6981058 81.652093,53.1631012 81.3820916,53.5531031 C80.7820886,54.4231075 80.039596,54.8506032 79.1545916,54.8356031 C78.2695872,54.8206031 77.4970949,54.3781075 76.8370916,53.5081031 Z M105.907092,67.4131031 C105.127088,69.3031126 104.287096,71.1930937 103.387092,73.0831031 C102.487087,74.9731126 101.474597,76.6830955 100.349592,78.2131031 C99.224586,79.7431108 97.9720985,80.9805984 96.5920916,81.9256031 C95.2120847,82.8706079 93.6521003,83.3281033 91.9120916,83.2981031 C90.9520868,83.268103 89.9920964,83.0881048 89.0320916,82.7581031 C88.0720868,82.4281015 87.1795957,81.9181066 86.3545916,81.2281031 C85.5295875,80.5380997 84.8095947,79.6606085 84.1945916,78.5956031 C83.5795885,77.5305978 83.1220931,76.2331108 82.8220916,74.7031031 C82.4620898,72.6930931 82.5520889,70.6456136 83.0920916,68.5606031 C83.6320943,66.4755927 84.464586,64.5631118 85.5895916,62.8231031 C86.7145972,61.0830944 88.034584,59.6356089 89.5495916,58.4806031 C91.0645992,57.3255974 92.6020838,56.6731039 94.1620916,56.5231031 C95.242097,56.4331027 96.1720877,56.5381016 96.9520916,56.8381031 C97.7320955,57.1381046 98.384589,57.5731003 98.9095916,58.1431031 C99.4345942,58.713106 99.8245903,59.3655995 100.079592,60.1006031 C100.334593,60.8356068 100.477091,61.5780994 100.507092,62.3281031 C100.567092,64.0081115 100.267095,65.5230964 99.6070916,66.8731031 C98.9470883,68.2231099 98.077097,69.3705984 96.9970916,70.3156031 C95.9170862,71.2606079 94.6945984,72.0106004 93.3295916,72.5656031 C91.9645848,73.1206059 90.5920985,73.4581025 89.2120916,73.5781031 C89.2720919,74.0881057 89.362091,74.5681009 89.4820916,75.0181031 C89.6620925,75.8581073 89.9395897,76.5331006 90.3145916,77.0431031 C90.6895935,77.5531057 91.1020894,77.9281019 91.5520916,78.1681031 C92.0020939,78.4081043 92.4595893,78.5356031 92.9245916,78.5506031 C93.3895939,78.5656032 93.8020898,78.5131037 94.1620916,78.3931031 C95.1220964,78.1531019 96.0520871,77.6581069 96.9520916,76.9081031 C97.8520961,76.1580994 98.7145875,75.2131088 99.5395916,74.0731031 C100.364596,72.9330974 101.152088,71.6206106 101.902092,70.1356031 C102.652095,68.6505957 103.357088,67.0531117 104.017092,65.3431031 C104.257093,64.9831013 104.51209,64.8106031 104.782092,64.8256031 C105.052093,64.8406032 105.292091,64.9681019 105.502092,65.2081031 C105.712093,65.4481043 105.862091,65.778101 105.952092,66.1981031 C106.042092,66.6181052 106.027092,67.0231012 105.907092,67.4131031 Z M93.9820916,60.3481031 C93.3820886,60.7081049 92.8120943,61.2255998 92.2720916,61.9006031 C91.7320889,62.5756065 91.2520937,63.3630986 90.8320916,64.2631031 C90.4120895,65.1631076 90.059593,66.1455978 89.7745916,67.2106031 C89.4895902,68.2756085 89.3020921,69.3480977 89.2120916,70.4281031 C90.4720979,70.2181021 91.5895867,69.828106 92.5645916,69.2581031 C93.5395965,68.6881003 94.3420885,67.9981072 94.9720916,67.1881031 C95.6020948,66.3780991 96.0445903,65.485608 96.2995916,64.5106031 C96.5545929,63.5355983 96.5920925,62.5381082 96.4120916,61.5181031 C96.292091,60.8580998 96.0220937,60.4006044 95.6020916,60.1456031 C95.1820895,59.8906019 94.6420949,59.9581012 93.9820916,60.3481031 Z M127.237092,73.5331031 C126.157086,75.6031135 125.159596,77.2830967 124.244592,78.5731031 C123.329587,79.8631096 122.482096,80.8680995 121.702092,81.5881031 C120.922088,82.3081067 120.202095,82.780602 119.542092,83.0056031 C118.882088,83.2306043 118.282094,83.3131034 117.742092,83.2531031 C117.202089,83.223103 116.722094,82.9906053 116.302092,82.5556031 C115.88209,82.120601 115.522093,81.618106 115.222092,81.0481031 C114.92209,80.4781003 114.682093,79.9006061 114.502092,79.3156031 C114.322091,78.7306002 114.217092,78.2581049 114.187092,77.8981031 C114.097091,77.0880991 114.052092,76.293107 114.052092,75.5131031 C113.122087,77.1631114 112.259596,78.498098 111.464592,79.5181031 C110.669588,80.5381082 109.934595,81.3331003 109.259592,81.9031031 C108.584588,82.473106 107.962094,82.8556022 107.392092,83.0506031 C106.822089,83.2456041 106.297094,83.3131034 105.817092,83.2531031 C105.277089,83.223103 104.797094,82.9906053 104.377092,82.5556031 C103.95709,82.120601 103.597093,81.618106 103.297092,81.0481031 C102.99709,80.4781003 102.757093,79.9006061 102.577092,79.3156031 C102.397091,78.7306002 102.277092,78.2581049 102.217092,77.8981031 C102.067091,76.4580959 102.067091,75.05561 102.217092,73.6906031 C102.367092,72.3255963 102.59959,70.9231103 102.914592,69.4831031 C103.229593,68.0430959 103.619589,66.5431109 104.084592,64.9831031 C104.549594,63.4230953 105.022089,61.7281123 105.502092,59.8981031 C105.742093,59.0580989 106.06459,58.5631039 106.469592,58.4131031 C106.874594,58.2631024 107.452088,58.2331027 108.202092,58.3231031 C108.652094,58.3531033 109.04209,58.4056028 109.372092,58.4806031 C109.702093,58.5556035 109.964591,58.6906022 110.159592,58.8856031 C110.354593,59.0806041 110.474591,59.3581013 110.519592,59.7181031 C110.564592,60.0781049 110.512092,60.5731 110.362092,61.2031031 C110.152091,62.0731075 109.912093,63.0480977 109.642092,64.1281031 C109.37209,65.2081085 109.102093,66.3030976 108.832092,67.4131031 C108.56209,68.5231087 108.307093,69.595598 108.067092,70.6306031 C107.82709,71.6656083 107.617093,72.5580994 107.437092,73.3081031 C107.347091,73.6981051 107.347091,74.0806013 107.437092,74.4556031 C107.527092,74.830605 107.677091,75.1606017 107.887092,75.4456031 C108.097093,75.7306046 108.32209,75.9406025 108.562092,76.0756031 C108.802093,76.2106038 109.04209,76.2481034 109.282092,76.1881031 C109.672094,76.0081022 110.099589,75.6931054 110.564592,75.2431031 C111.029594,74.7931009 111.479589,74.2756061 111.914592,73.6906031 C112.349594,73.1056002 112.74709,72.5056062 113.107092,71.8906031 C113.467093,71.2756001 113.737091,70.7131057 113.917092,70.2031031 L115.852092,65.3431031 L115.987092,65.1631031 L117.472092,59.8981031 C117.712093,59.0580989 118.049589,58.5631039 118.484592,58.4131031 C118.919594,58.2631024 119.512088,58.2331027 120.262092,58.3231031 C120.712094,58.3531033 121.10959,58.4056028 121.454592,58.4806031 C121.799593,58.5556035 122.069591,58.6906022 122.264592,58.8856031 C122.459593,59.0806041 122.572091,59.3581013 122.602092,59.7181031 C122.632092,60.0781049 122.587092,60.5731 122.467092,61.2031031 C122.22709,62.0731075 121.972093,63.0480977 121.702092,64.1281031 C121.43209,65.2081085 121.162093,66.3030976 120.892092,67.4131031 C120.62209,68.5231087 120.367093,69.595598 120.127092,70.6306031 C119.88709,71.6656083 119.677093,72.5580994 119.497092,73.3081031 C119.407091,73.6981051 119.407091,74.0806013 119.497092,74.4556031 C119.587092,74.830605 119.737091,75.1606017 119.947092,75.4456031 C120.157093,75.7306046 120.38209,75.9406025 120.622092,76.0756031 C120.862093,76.2106038 121.10209,76.2481034 121.342092,76.1881031 C121.732094,76.0081022 122.159589,75.6931054 122.624592,75.2431031 C123.089594,74.7931009 123.539589,74.2756061 123.974592,73.6906031 C124.409594,73.1056002 124.80709,72.5056062 125.167092,71.8906031 C125.527093,71.2756001 125.797091,70.7131057 125.977092,70.2031031 L126.652092,68.5381031 C126.35209,68.0281006 126.082093,67.4581063 125.842092,66.8281031 C125.60209,66.1981 125.407092,65.5231067 125.257092,64.8031031 C125.107091,64.2031001 124.979592,63.618106 124.874592,63.0481031 C124.769591,62.4781003 124.732091,61.908106 124.762092,61.3381031 C124.732091,60.7081 124.777091,60.0931061 124.897092,59.4931031 C125.017092,58.8931001 125.18959,58.3681054 125.414592,57.9181031 C125.639593,57.4681009 125.91709,57.1006046 126.247092,56.8156031 C126.577093,56.5306017 126.93709,56.3881031 127.327092,56.3881031 C128.137096,56.3881031 128.75209,56.7255998 129.172092,57.4006031 C129.592094,58.0756065 129.92209,58.9380979 130.162092,59.9881031 C130.462093,61.2781096 130.522093,62.7105953 130.342092,64.2856031 C130.162091,65.860611 129.892093,67.3680959 129.532092,68.8081031 C129.922094,69.0481043 130.357089,69.2131027 130.837092,69.3031031 C131.407094,69.3031031 131.992089,68.9356068 132.592092,68.2006031 C133.192095,67.4655995 133.70209,66.5731084 134.122092,65.5231031 C134.302093,65.103101 134.52709,64.8856032 134.797092,64.8706031 C135.067093,64.8556031 135.31459,64.9681019 135.539592,65.2081031 C135.764593,65.4481043 135.929591,65.778101 136.034592,66.1981031 C136.139592,66.6181052 136.132092,67.0231012 136.012092,67.4131031 C135.292088,69.2731124 134.542096,70.5330998 133.762092,71.1931031 C132.982088,71.8531064 132.202096,72.1381036 131.422092,72.0481031 C130.282086,71.9581027 129.292096,71.5381069 128.452092,70.7881031 C128.242091,71.2681055 128.047093,71.7331009 127.867092,72.1831031 C127.687091,72.6331054 127.477093,73.0831009 127.237092,73.5331031 Z M127.597092,66.1981031 L127.777092,65.7931031 C127.867092,65.2831006 127.942091,64.7806056 128.002092,64.2856031 C128.062092,63.7906007 128.122091,63.3181054 128.182092,62.8681031 C128.212092,62.7181024 128.242091,62.455605 128.272092,62.0806031 C128.302092,61.7056013 128.309592,61.3231051 128.294592,60.9331031 C128.279592,60.5431012 128.227092,60.1906047 128.137092,59.8756031 C128.047091,59.5606016 127.897093,59.4031031 127.687092,59.4031031 C127.44709,59.4031031 127.244592,59.6956002 127.079592,60.2806031 C126.914591,60.8656061 126.832092,61.4880998 126.832092,62.1481031 C126.892092,62.5981054 126.937091,63.0481009 126.967092,63.4981031 C126.997092,63.9481054 127.072091,64.383101 127.192092,64.8031031 L127.597092,66.1981031 Z" id="view" transform="translate(94.243842, 64.657361) rotate(-8.000000) translate(-94.243842, -64.657361) "></path>
                </g>
            </g>
        </g>
    </g>
</svg>